<!DOCTYPE svg PUBLIC "-//W3C//DTD SVG 1.1//EN" "http://www.w3.org/Graphics/SVG/1.1/DTD/svg11.dtd">
<!-- Uploaded to: SVG Repo, www.svgrepo.com, Transformed by: SVG Repo Mixer Tools -->
<svg version="1.1" id="Layer_1" xmlns="http://www.w3.org/2000/svg" xmlns:xlink="http://www.w3.org/1999/xlink" viewBox="0 0 512.003 512.003" xml:space="preserve" width="800px" height="800px" fill="#000000">
<g id="SVGRepo_bgCarrier" stroke-width="0"/>
<g id="SVGRepo_tracerCarrier" stroke-linecap="round" stroke-linejoin="round"/>
<g id="SVGRepo_iconCarrier"> <g> <rect x="13.961" y="146.776" style="fill:#FEE187;" width="414.231" height="50.978"/> <circle style="fill:#FEE187;" cx="178.02" cy="305.139" r="37.765"/> <path style="fill:#FEE187;" d="M479.329,274.766c-17.933,0-33.4-10.517-40.597-25.715h-21.09 c-7.197,15.198-22.665,25.715-40.597,25.715c-6.678,0-13.015-1.46-18.711-4.074v86.017c0,35.168,69.852,63.941,69.852,63.941 s69.852-28.774,69.852-63.941v-86.017C492.343,273.306,486.007,274.766,479.329,274.766z"/> </g> <g> <path style="fill:#FFC61B;" d="M302.543,373.797H27.923V211.718h400.265c7.711,0,13.961-6.252,13.961-13.961v-50.978 c0-7.709-6.25-13.961-13.961-13.961H27.923v-27.502h400.265c7.711,0,13.961-6.252,13.961-13.961s-6.25-13.961-13.961-13.961H13.961 C6.25,77.393,0,83.645,0,91.354v296.405c0,7.709,6.25,13.961,13.961,13.961h288.582c7.711,0,13.961-6.252,13.961-13.961 S310.254,373.797,302.543,373.797z M414.226,160.74v23.056H27.923V160.74L414.226,160.74L414.226,160.74z"/> <path style="fill:#FFC61B;" d="M104.824,281.338c7.711,0,13.961-6.252,13.961-13.961s-6.25-13.961-13.961-13.961 c-28.521,0-51.725,23.204-51.725,51.726c0,28.521,23.204,51.725,51.725,51.725c14.038,0,27.095-5.646,36.611-15.188 c9.368,9.379,22.307,15.188,36.58,15.188c28.521,0,51.725-23.204,51.725-51.725c0-28.523-23.204-51.726-51.725-51.726 s-51.725,23.204-51.725,51.726c0,2.964,0.264,5.867,0.746,8.696c-0.091,0.188-0.191,0.37-0.274,0.564 c-3.736,8.835-12.346,14.542-21.937,14.542c-13.125,0-23.803-10.678-23.803-23.803C81.021,292.017,91.699,281.338,104.824,281.338z M178.014,281.338c13.125,0,23.803,10.678,23.803,23.804c0,13.124-10.678,23.803-23.803,23.803s-23.803-10.678-23.803-23.803 C154.212,292.017,164.889,281.338,178.014,281.338z"/> <path style="fill:#FFC61B;" d="M505.575,258.938c-4.004-2.569-9.039-2.919-13.361-0.935c-4.049,1.858-8.384,2.801-12.886,2.801 c-11.896,0-22.88-6.958-27.978-17.727c-2.309-4.877-7.222-7.987-12.618-7.987h-21.09c-5.396,0-10.309,3.111-12.618,7.987 c-5.099,10.768-16.082,17.727-27.978,17.727c-4.503,0-8.837-0.942-12.886-2.801c-4.321-1.984-9.357-1.629-13.361,0.935 c-3.902,2.502-6.283,6.775-6.403,11.392h-75.126c-7.711,0-13.961,6.252-13.961,13.961s6.25,13.961,13.961,13.961h75.103v13.776 h-75.102c-7.711,0-13.961,6.252-13.961,13.961s6.25,13.961,13.961,13.961h75.103v16.755c0,43.267,70.462,73.542,78.497,76.851 c1.703,0.702,3.51,1.053,5.318,1.053c1.808,0,3.615-0.35,5.318-1.053c8.035-3.309,78.496-33.584,78.496-76.851v-86.015 C512,265.935,509.579,261.506,505.575,258.938z M484.077,356.707c0,16.318-31.608,37.603-55.891,48.715 c-24.284-11.112-55.891-32.397-55.891-48.715v-68.169c1.572,0.124,3.155,0.187,4.75,0.187c19.535,0,37.768-9.854,48.628-25.714 h5.027c10.859,15.86,29.094,25.714,48.628,25.714c1.594,0,3.178-0.063,4.75-0.187v68.169H484.077z"/> </g> </g>
</svg>